<svg width="36" height="36" viewBox="0 0 36 36" fill="none" xmlns="http://www.w3.org/2000/svg">
<g id="Group">
<g id="4. Coupon">
<path id="Vector" d="M16.6667 34.6666C25.8714 34.6666 33.3333 27.2047 33.3333 17.9999C33.3333 8.79517 25.8714 1.33325 16.6667 1.33325C7.46192 1.33325 0 8.79517 0 17.9999C0 27.2047 7.46192 34.6666 16.6667 34.6666Z" fill="#D5EEDB"/>
<path id="Vector_2" d="M16.6666 30.3333C23.4781 30.3333 28.9999 24.8115 28.9999 18C28.9999 11.1884 23.4781 5.66663 16.6666 5.66663C9.85507 5.66663 4.33325 11.1884 4.33325 18C4.33325 24.8115 9.85507 30.3333 16.6666 30.3333Z" fill="#AADCB7"/>
<path id="Vector_3" d="M5.66675 2C6.21903 2 6.66675 1.55228 6.66675 1C6.66675 0.447715 6.21903 0 5.66675 0C5.11446 0 4.66675 0.447715 4.66675 1C4.66675 1.55228 5.11446 2 5.66675 2Z" fill="#FF4D69"/>
<path id="Vector_4" d="M35 5C35.5523 5 36 4.55228 36 4C36 3.44772 35.5523 3 35 3C34.4477 3 34 3.44772 34 4C34 4.55228 34.4477 5 35 5Z" fill="#00C99F"/>
<path id="Vector_5" d="M29.3333 36C29.8855 36 30.3333 35.5523 30.3333 35C30.3333 34.4477 29.8855 34 29.3333 34C28.781 34 28.3333 34.4477 28.3333 35C28.3333 35.5523 28.781 36 29.3333 36Z" fill="#FFA100"/>
<path id="Vector_6" d="M4 34.6666C4.55228 34.6666 5 34.2189 5 33.6666C5 33.1143 4.55228 32.6666 4 32.6666C3.44772 32.6666 3 33.1143 3 33.6666C3 34.2189 3.44772 34.6666 4 34.6666Z" fill="#00C99F"/>
<path id="Vector_7" d="M33.6665 20C33.6662 20.275 33.7509 20.5434 33.909 20.7684C34.0672 20.9933 34.291 21.1639 34.5498 21.2567C34.6782 21.2971 34.7906 21.3767 34.8713 21.4843C34.952 21.592 34.997 21.7222 34.9998 21.8567V27C34.9998 27.1769 34.9296 27.3464 34.8046 27.4714C34.6796 27.5965 34.51 27.6667 34.3332 27.6667H26.8565C26.722 27.6639 26.5918 27.6189 26.4841 27.5382C26.3765 27.4575 26.2969 27.345 26.2565 27.2167C26.1644 26.957 25.9942 26.7323 25.7691 26.5733C25.5441 26.4143 25.2754 26.329 24.9998 26.329C24.7243 26.329 24.4556 26.4143 24.2305 26.5733C24.0055 26.7323 23.8353 26.957 23.7432 27.2167C23.7028 27.345 23.6232 27.4575 23.5155 27.5382C23.4079 27.6189 23.2777 27.6639 23.1432 27.6667H6.33317C6.15636 27.6667 5.98679 27.5965 5.86177 27.4714C5.73674 27.3464 5.6665 27.1769 5.6665 27V12.3334H23.6665C23.6665 12.687 23.807 13.0261 24.057 13.2762C24.3071 13.5262 24.6462 13.6667 24.9998 13.6667C25.3535 13.6667 25.6926 13.5262 25.9426 13.2762C26.1927 13.0261 26.3332 12.687 26.3332 12.3334H34.3332C34.51 12.3334 34.6796 12.4036 34.8046 12.5286C34.9296 12.6537 34.9998 12.8232 34.9998 13V18.1434C34.997 18.2779 34.952 18.4081 34.8713 18.5157C34.7906 18.6234 34.6782 18.703 34.5498 18.7434C34.291 18.8362 34.0672 19.0068 33.909 19.2317C33.7509 19.4567 33.6662 19.7251 33.6665 20V20Z" fill="#2BA84A"/>
<path id="Vector_8" d="M28.0001 16C27.9998 16.275 28.0845 16.5434 28.2427 16.7684C28.4008 16.9933 28.6246 17.1639 28.8835 17.2567C29.0118 17.2971 29.1242 17.3767 29.205 17.4843C29.2857 17.592 29.3306 17.7222 29.3335 17.8567V23C29.3335 23.1769 29.2632 23.3464 29.1382 23.4714C29.0132 23.5965 28.8436 23.6667 28.6668 23.6667H21.1901C21.0556 23.6639 20.9254 23.6189 20.8178 23.5382C20.7102 23.4575 20.6305 23.345 20.5901 23.2167C20.4981 22.957 20.3278 22.7323 20.1028 22.5733C19.8777 22.4143 19.609 22.329 19.3335 22.329C19.058 22.329 18.7892 22.4143 18.5642 22.5733C18.3391 22.7323 18.1689 22.957 18.0768 23.2167C18.0364 23.345 17.9568 23.4575 17.8492 23.5382C17.7415 23.6189 17.6113 23.6639 17.4768 23.6667H1.00014C0.0841393 21.1316 -0.203309 18.4121 0.162448 15.7415C0.528205 13.0709 1.53625 10.5289 3.10014 8.33337H17.4768C17.6113 8.33623 17.7415 8.38118 17.8492 8.4619C17.9568 8.54262 18.0364 8.65505 18.0768 8.78337C18.1689 9.04305 18.3391 9.26782 18.5642 9.42678C18.7892 9.58575 19.058 9.6711 19.3335 9.6711C19.609 9.6711 19.8777 9.58575 20.1028 9.42678C20.3278 9.26782 20.4981 9.04305 20.5901 8.78337C20.6305 8.65505 20.7102 8.54262 20.8178 8.4619C20.9254 8.38118 21.0556 8.33623 21.1901 8.33337H28.6668C28.8436 8.33337 29.0132 8.40361 29.1382 8.52864C29.2632 8.65366 29.3335 8.82323 29.3335 9.00004V14.1434C29.3306 14.2779 29.2857 14.4081 29.205 14.5157C29.1242 14.6234 29.0118 14.703 28.8835 14.7434C28.6246 14.8362 28.4008 15.0068 28.2427 15.2317C28.0845 15.4567 27.9998 15.7251 28.0001 16V16Z" fill="#80CB92"/>
<path id="Vector_9" d="M19.6667 11.6667C19.6667 11.4826 19.5174 11.3334 19.3333 11.3334C19.1492 11.3334 19 11.4826 19 11.6667V12.3334C19 12.5175 19.1492 12.6667 19.3333 12.6667C19.5174 12.6667 19.6667 12.5175 19.6667 12.3334V11.6667Z" fill="#8FA2FF"/>
<path id="Vector_10" d="M19.6667 14.3335C19.6667 14.1494 19.5174 14.0001 19.3333 14.0001C19.1492 14.0001 19 14.1494 19 14.3335V15.0001C19 15.1842 19.1492 15.3335 19.3333 15.3335C19.5174 15.3335 19.6667 15.1842 19.6667 15.0001V14.3335Z" fill="#8FA2FF"/>
<path id="Vector_11" d="M19.6667 17C19.6667 16.8159 19.5174 16.6666 19.3333 16.6666C19.1492 16.6666 19 16.8159 19 17V17.6666C19 17.8507 19.1492 18 19.3333 18C19.5174 18 19.6667 17.8507 19.6667 17.6666V17Z" fill="#8FA2FF"/>
<path id="Vector_12" d="M19.6667 19.6666C19.6667 19.4825 19.5174 19.3333 19.3333 19.3333C19.1492 19.3333 19 19.4825 19 19.6666V20.3333C19 20.5173 19.1492 20.6666 19.3333 20.6666C19.5174 20.6666 19.6667 20.5173 19.6667 20.3333V19.6666Z" fill="#8FA2FF"/>
<g id="Group_2">
<path id="Vector_13" d="M21.6665 13.3335H26.3332C26.5173 13.3335 26.6665 13.1843 26.6665 13.0002C26.6665 12.8161 26.5173 12.6668 26.3332 12.6668H21.6665C21.4824 12.6668 21.3332 12.8161 21.3332 13.0002C21.3332 13.1843 21.4824 13.3335 21.6665 13.3335Z" fill="white"/>
<path id="Vector_14" d="M21.6665 15.3334H26.3332C26.5173 15.3334 26.6665 15.1841 26.6665 15C26.6665 14.8159 26.5173 14.6667 26.3332 14.6667H21.6665C21.4824 14.6667 21.3332 14.8159 21.3332 15C21.3332 15.1841 21.4824 15.3334 21.6665 15.3334Z" fill="white"/>
<path id="Vector_15" d="M21.6665 17.3334H26.3332C26.5173 17.3334 26.6665 17.1841 26.6665 17C26.6665 16.8159 26.5173 16.6667 26.3332 16.6667H21.6665C21.4824 16.6667 21.3332 16.8159 21.3332 17C21.3332 17.1841 21.4824 17.3334 21.6665 17.3334Z" fill="white"/>
<path id="Vector_16" d="M2.33333 22.3334H3.66667C3.85076 22.3334 4 22.1841 4 22C4 21.8159 3.85076 21.6667 3.66667 21.6667H2.33333C2.14924 21.6667 2 21.8159 2 22C2 22.1841 2.14924 22.3334 2.33333 22.3334Z" fill="white"/>
<path id="Vector_17" d="M21.6665 19.3334H26.3332C26.5173 19.3334 26.6665 19.1841 26.6665 19C26.6665 18.8159 26.5173 18.6667 26.3332 18.6667H21.6665C21.4824 18.6667 21.3332 18.8159 21.3332 19C21.3332 19.1841 21.4824 19.3334 21.6665 19.3334Z" fill="white"/>
<path id="Vector_18" d="M5.66655 20C5.53511 19.9995 5.40676 19.9601 5.29764 19.8868C5.18852 19.8135 5.1035 19.7096 5.05328 19.5881C5.00305 19.4666 4.98985 19.333 5.01534 19.2041C5.04084 19.0751 5.10388 18.9566 5.19655 18.8633L11.8632 12.1967C11.9908 12.0875 12.1548 12.0304 12.3226 12.0369C12.4904 12.0434 12.6495 12.1129 12.7683 12.2316C12.887 12.3504 12.9565 12.5095 12.963 12.6773C12.9695 12.8451 12.9124 13.0091 12.8032 13.1367L6.13655 19.8033C6.0121 19.9285 5.84308 19.9993 5.66655 20V20Z" fill="white"/>
<path id="Vector_19" d="M6 15.6667C5.60444 15.6667 5.21776 15.5495 4.88886 15.3297C4.55996 15.1099 4.30362 14.7976 4.15224 14.4321C4.00087 14.0667 3.96126 13.6645 4.03843 13.2766C4.1156 12.8886 4.30608 12.5322 4.58579 12.2525C4.86549 11.9728 5.22186 11.7823 5.60982 11.7052C5.99778 11.628 6.39992 11.6676 6.76537 11.819C7.13082 11.9704 7.44318 12.2267 7.66294 12.5556C7.8827 12.8845 8 13.2712 8 13.6667C8 14.1972 7.78929 14.7059 7.41421 15.081C7.03914 15.456 6.53043 15.6667 6 15.6667V15.6667ZM6 13.0001C5.86815 13.0001 5.73925 13.0392 5.62962 13.1124C5.51999 13.1857 5.43454 13.2898 5.38408 13.4116C5.33362 13.5334 5.32042 13.6675 5.34614 13.7968C5.37187 13.9261 5.43536 14.0449 5.5286 14.1382C5.62183 14.2314 5.74062 14.2949 5.86994 14.3206C5.99926 14.3463 6.13331 14.3331 6.25512 14.2827C6.37694 14.2322 6.48106 14.1468 6.55431 14.0371C6.62757 13.9275 6.66667 13.7986 6.66667 13.6667C6.66667 13.4899 6.59643 13.3204 6.47141 13.1953C6.34638 13.0703 6.17681 13.0001 6 13.0001Z" fill="white"/>
<path id="Vector_20" d="M12.6665 20.3335C12.2709 20.3335 11.8843 20.2162 11.5554 19.9964C11.2265 19.7767 10.9701 19.4643 10.8187 19.0989C10.6674 18.7334 10.6278 18.3313 10.7049 17.9433C10.7821 17.5554 10.9726 17.199 11.2523 16.9193C11.532 16.6396 11.8884 16.4491 12.2763 16.3719C12.6643 16.2948 13.0664 16.3344 13.4319 16.4857C13.7973 16.6371 14.1097 16.8935 14.3294 17.2224C14.5492 17.5513 14.6665 17.9379 14.6665 18.3335C14.6665 18.8639 14.4558 19.3726 14.0807 19.7477C13.7056 20.1228 13.1969 20.3335 12.6665 20.3335V20.3335ZM12.6665 17.6668C12.5347 17.6668 12.4058 17.7059 12.2961 17.7792C12.1865 17.8524 12.101 17.9566 12.0506 18.0784C12.0001 18.2002 11.9869 18.3342 12.0126 18.4636C12.0384 18.5929 12.1019 18.7117 12.1951 18.8049C12.2883 18.8981 12.4071 18.9616 12.5364 18.9874C12.6658 19.0131 12.7998 18.9999 12.9216 18.9494C13.0434 18.899 13.1476 18.8135 13.2208 18.7039C13.2941 18.5942 13.3332 18.4654 13.3332 18.3335C13.3332 18.1567 13.2629 17.9871 13.1379 17.8621C13.0129 17.7371 12.8433 17.6668 12.6665 17.6668Z" fill="white"/>
</g>
</g>
</g>
</svg>
