<svg width="20" height="20" viewBox="0 0 20 20" fill="none" xmlns="http://www.w3.org/2000/svg">
<g id="Frame" clip-path="url(#clip0_264_23098)">
<g id="Group">
<path id="Vector" d="M7.66553 0.883301H10.4707V1.93525H7.66553V0.883301Z" fill="#2BA84A"/>
<path id="Vector_2" d="M13.2734 9.88329C12.3972 9.88329 12.3972 8.94824 11.5209 8.94824C10.6446 8.94824 10.6446 9.88329 9.76832 9.88329C8.89204 9.88329 8.8918 8.94824 8.01528 8.94824C7.13876 8.94824 7.13925 9.88329 6.26322 9.88329C5.38642 9.88329 5.38642 8.94824 4.50962 8.94824C3.63219 8.94824 3.63219 9.88329 2.75479 9.88329C1.8774 9.88329 1.8774 8.94824 1 8.94824V19.8184H14.6753V9.01115C14.1302 9.21877 14.0132 9.88329 13.2734 9.88329Z" fill="#2BA84A"/>
<path id="Vector_3" d="M16.7808 9.88329C16.0399 9.88329 15.9229 9.21849 15.3767 9.01101V19.8184H18.5356V8.94824C17.6582 8.94824 17.6582 9.88329 16.7808 9.88329Z" fill="#2BA84A"/>
<path id="Vector_4" d="M6.26311 9.18188C6.37679 9.18188 6.4141 9.16372 6.62712 8.93618C6.78961 8.72199 6.99947 8.5483 7.24027 8.42872C7.48106 8.30913 7.74627 8.2469 8.01512 8.24688C8.28398 8.24687 8.54919 8.30907 8.79 8.42862C9.03082 8.54817 9.2407 8.72183 9.40322 8.93601C9.61476 9.16186 9.6539 9.18146 9.76575 9.18167C9.64174 8.45881 9.6786 7.71751 9.87372 7.01052C10.109 6.04305 10.6493 5.17693 11.4147 4.54015C11.064 4.14908 10.6179 3.85562 10.1199 3.68842V2.63647H8.01601V3.68842C7.40336 3.89264 6.87049 4.28444 6.49289 4.80834C6.11529 5.33223 5.9121 5.96165 5.91211 6.60745V8.95066C6.10223 9.15253 6.14704 9.18188 6.26311 9.18188Z" fill="#2BA84A"/>
<path id="Vector_5" d="M16.415 8.93588C16.6198 9.15437 16.6608 9.18193 16.7807 9.18193C16.9006 9.18193 16.942 9.15437 17.1471 8.93574C17.2188 8.85929 17.3023 8.77219 17.3992 8.686C17.7043 7.12361 17.1604 5.69587 16.1097 5.41444C15.7319 5.32227 15.3334 5.37154 14.9894 5.55294C15.0466 5.19581 15.2202 4.86757 15.4832 4.61934C15.616 4.51873 15.7689 4.44773 15.9314 4.41111C16.094 4.37448 16.2625 4.37309 16.4256 4.40702C16.4716 4.41409 16.5186 4.41192 16.5637 4.40065C16.6089 4.38939 16.6514 4.36924 16.6887 4.34138C16.726 4.31353 16.7573 4.27853 16.781 4.23842C16.8046 4.19831 16.82 4.1539 16.8263 4.10778C16.8326 4.06166 16.8296 4.01474 16.8176 3.96978C16.8055 3.92481 16.7847 3.88269 16.7562 3.84587C16.7277 3.80906 16.6922 3.77828 16.6517 3.75534C16.6112 3.73239 16.5665 3.71774 16.5203 3.71224C16.2616 3.66422 15.9957 3.6719 15.7402 3.73479C15.4848 3.79767 15.2457 3.91431 15.0389 4.07692C14.6585 4.41871 14.4018 4.8767 14.3088 5.37955C14.1014 5.04514 13.7779 4.79909 13.4002 4.68859C12.2779 4.38784 11.0023 5.50883 10.5512 7.19223C10.4201 7.67301 10.3707 8.17241 10.4052 8.66956C10.7099 8.3921 11.1089 8.241 11.5209 8.24692C11.7892 8.25015 12.0533 8.3138 12.2936 8.43314C12.5339 8.55247 12.7441 8.72443 12.9088 8.93623C13.1222 9.16376 13.1595 9.18193 13.2735 9.18193C13.3875 9.18193 13.4248 9.16376 13.6382 8.93623C13.8007 8.72204 14.0107 8.54836 14.2515 8.42878C14.4923 8.3092 14.7576 8.24696 15.0265 8.24693C15.2954 8.24689 15.5606 8.30907 15.8015 8.42859C16.0424 8.5481 16.2523 8.72173 16.4149 8.93588H16.415Z" fill="#2BA84A"/>
<path id="Vector_6" d="M2.38891 8.93576C2.59369 9.15425 2.63479 9.18181 2.75464 9.18181C2.87449 9.18181 2.91594 9.15425 3.12104 8.93561C3.28589 8.72388 3.49633 8.55201 3.73673 8.43276C3.97712 8.31351 4.24129 8.24995 4.50961 8.2468C4.7514 8.24391 4.99085 8.29436 5.21091 8.39456V6.6074C5.21302 5.99111 5.36647 5.38477 5.65778 4.84167C4.49832 1.87833 3.05539 -0.0638164 2.04454 0.207026C0.791423 0.542808 0.659473 4.15145 1.70466 8.39607C1.96629 8.52878 2.1989 8.71224 2.38891 8.93576ZM4.3319 4.93133C4.41999 4.96113 4.49264 5.0247 4.53386 5.10805C4.57509 5.19141 4.58151 5.28772 4.55172 5.37582L3.7412 7.77093C3.72683 7.81503 3.70386 7.85584 3.67362 7.891C3.64338 7.92616 3.60646 7.95497 3.565 7.97577C3.52355 7.99656 3.47838 8.00892 3.43211 8.01214C3.38584 8.01536 3.3394 8.00937 3.29547 7.99451C3.25153 7.97966 3.21098 7.95623 3.17616 7.9256C3.14134 7.89496 3.11294 7.85772 3.09261 7.81604C3.07229 7.77435 3.06043 7.72904 3.05773 7.68274C3.05503 7.63645 3.06154 7.59007 3.07689 7.5463L3.88742 5.15115C3.91727 5.0631 3.98084 4.9905 4.06418 4.94928C4.14751 4.90806 4.2438 4.90159 4.3319 4.9313V4.93133ZM2.26019 4.84872L3.07019 2.45357C3.10074 2.36645 3.16441 2.2949 3.24739 2.25443C3.33037 2.21397 3.42595 2.20786 3.51341 2.23743C3.60086 2.267 3.67313 2.32987 3.71452 2.41238C3.75591 2.4949 3.76309 2.59042 3.7345 2.6782L2.92467 5.07342C2.91031 5.11751 2.88734 5.15833 2.8571 5.19349C2.82685 5.22865 2.78993 5.25746 2.74848 5.27825C2.70702 5.29905 2.66185 5.31141 2.61559 5.31463C2.56932 5.31784 2.52288 5.31185 2.47894 5.297C2.43501 5.28214 2.39446 5.25872 2.35964 5.22808C2.32482 5.19744 2.29642 5.16021 2.27609 5.11852C2.25576 5.07683 2.24391 5.03153 2.24121 4.98523C2.23851 4.93893 2.24502 4.89256 2.26037 4.84879L2.26019 4.84872Z" fill="#2BA84A"/>
</g>
</g>
<defs>
<clipPath id="clip0_264_23098">
<rect width="19.6364" height="19.6364" fill="white" transform="translate(0.181885 0.181885)"/>
</clipPath>
</defs>
</svg>
